<svg xmlns="http://www.w3.org/2000/svg" width="48" height="45.017" viewBox="0 0 48 45.017">
  <g transform="translate(0 0)">
    <path id="Path_302" data-name="Path 302" d="M34.5,22c0,3.2-2.5,4.9-6,4.9H18.4a30.9,30.9,0,0,1,1.1,7.5c0,8.7-2.4,10.5-4.5,10.5a6.066,6.066,0,0,1-3.8-1,1.445,1.445,0,0,1-.7-1L9,34.8c-1.6-4.3-5.7-8-9-10.5V2.9A9.057,9.057,0,0,0,3.8,1.6,11.728,11.728,0,0,1,9,0H23.3c3,0,5.2,2.4,5.2,4.5a3.75,3.75,0,0,1-.1,1.1,4.445,4.445,0,0,1,3.1,4.1A5.214,5.214,0,0,1,31,12a4.917,4.917,0,0,1,2.3,3.7,4.173,4.173,0,0,1-1,2.5A5.085,5.085,0,0,1,34.5,22Z" transform="translate(13.5 0.1)"/>
    <path id="Path_303" data-name="Path 303" d="M12,0H3A2.946,2.946,0,0,0,0,3V24a2.946,2.946,0,0,0,3,3h9a2.946,2.946,0,0,0,3-3V3a2.946,2.946,0,0,0-3-3Zm0,3h0V3ZM0,45" transform="translate(0 0)"/>
  </g>
</svg>
