<svg id="iconfinder_notes_edit_103663" xmlns="http://www.w3.org/2000/svg" width="32" height="32" viewBox="0 0 32 32">
  <g id="background">
    <rect id="Rectangle_288" data-name="Rectangle 288" width="32" height="32" fill="none"/>
  </g>
  <g id="notes_x5F_edit">
    <path id="Path_301" data-name="Path 301" d="M24,12H8v2H24Zm4,3.518V4H4V28H15.518A9,9,0,1,0,28,15.518ZM15.517,18a8.952,8.952,0,0,0-.994,2H8v2h6.058A9.165,9.165,0,0,0,14,23a8.951,8.951,0,0,0,.523,3H6V6H26v8.523A8.946,8.946,0,0,0,17.348,16H8v2ZM23,29.883A6.883,6.883,0,1,1,29.883,23,6.9,6.9,0,0,1,23,29.883Z" fill="#fff"/>
    <path id="Path_302" data-name="Path 302" d="M22,27H19V24Z" fill="#fff"/>
    <rect id="Rectangle_289" data-name="Rectangle 289" width="7.071" height="4.243" transform="translate(28 20.999) rotate(135)" fill="#fff"/>
  </g>
</svg>
