<svg xmlns="http://www.w3.org/2000/svg" width="48" height="45" viewBox="0 0 48 45">
  <g id="iconfinder_like_1814076" transform="translate(-8 -9.5)">
    <g id="Icon-Like" transform="translate(78 528)">
      <path id="Fill-4_2_" d="M-22-495.6c0-3.2-2.5-4.9-6-4.9H-38.1A30.9,30.9,0,0,0-37-508c0-8.7-2.4-10.5-4.5-10.5a6.066,6.066,0,0,0-3.8,1,1.445,1.445,0,0,0-.7,1l-1.5,8.1c-1.6,4.3-5.7,8-9,10.5v21.4a9.057,9.057,0,0,1,3.8,1.3,11.729,11.729,0,0,0,5.2,1.6h14.3c3,0,5.2-2.4,5.2-4.5a3.75,3.75,0,0,0-.1-1.1,4.445,4.445,0,0,0,3.1-4.1,5.214,5.214,0,0,0-.5-2.3,4.917,4.917,0,0,0,2.3-3.7,4.173,4.173,0,0,0-1-2.5,5.085,5.085,0,0,0,2.2-3.8Zm-3.1,0c0,1.9-2,2.1-2.3,3-.3,1,1.2,1.4,1.2,3.2,0,1.9-2.3,1.9-2.6,2.8-.4,1.1.7,1.5.7,3.3v.3c-.3,1.5-2.6,1.6-3,2.2-.4.7.1,1.1.1,2.7,0,.9-1,1.5-2.2,1.5H-47.5a9.057,9.057,0,0,1-3.8-1.3,16.894,16.894,0,0,0-3.7-1.5v-15.9c3.7-2.8,8.5-7.1,10.4-12.3,0-.1,0-.2.1-.2l1.4-7.5a4.164,4.164,0,0,1,1.7-.2c.3,0,1.5,1.8,1.5,7.5a27.655,27.655,0,0,1-1.2,7.5h-.4A1.538,1.538,0,0,0-43-499a1.538,1.538,0,0,0,1.5,1.5H-28c1.5,0,2.9.7,2.9,1.9Z" fill="#454545"/>
      <path id="Fill-6_2_" d="M-58-473.5h-9a2.946,2.946,0,0,1-3-3v-21a2.946,2.946,0,0,1,3-3h9a2.946,2.946,0,0,1,3,3v21a2.946,2.946,0,0,1-3,3Zm-9-24v21h9v-21Zm-3-21" fill="#454545"/>
    </g>
  </g>
</svg>
