<svg xmlns="http://www.w3.org/2000/svg" width="30.262" height="20" viewBox="0 0 30.262 20">
  <g id="iconfinder_outlined_visibility_4280479" transform="translate(-0.868 -6)">
    <path id="Path_301" data-name="Path 301" d="M30.89,15.54A17,17,0,0,0,16,6,17,17,0,0,0,1.11,15.54L.87,16l.24.46A17,17,0,0,0,16,26a17,17,0,0,0,14.89-9.54l.24-.46ZM24,16a8,8,0,1,1-8-8A8,8,0,0,1,24,16ZM3.14,16a16.47,16.47,0,0,1,4.14-4.89,10,10,0,0,0,0,9.78A16.47,16.47,0,0,1,3.14,16Zm21.58,4.89a10,10,0,0,0,0-9.78A16.47,16.47,0,0,1,28.86,16,16.47,16.47,0,0,1,24.72,20.89Z" fill="#454545"/>
    <path id="Path_302" data-name="Path 302" d="M16,20a4,4,0,1,0-4-4,4,4,0,0,0,4,4Zm0-6a2,2,0,1,1-2,2A2,2,0,0,1,16,14Z" fill="#454545"/>
  </g>
</svg>
