<svg xmlns="http://www.w3.org/2000/svg" width="28.394" height="21.59" viewBox="0 0 28.394 21.59">
  <g id="iconfinder_Jee-31_2180516" transform="translate(-9.813 -13.189)">
    <g id="Group_1221" data-name="Group 1221">
      <path id="Path_301" data-name="Path 301" d="M31.343,34.429a.122.122,0,0,0,.125-.142,5.941,5.941,0,0,0-.923-2.489c-.033-.038-.068-.074-.1-.109A13.006,13.006,0,0,0,27.43,29.85c-.55-.29-1.1-.572-1.656-.858a2.971,2.971,0,0,1-1.707-1.54,3.764,3.764,0,0,1-.353-1.645l.368-.453a7.76,7.76,0,0,0,.484-1.949c.328-.009.586-.353.672-.624a6.848,6.848,0,0,0,.326-1.3,1.183,1.183,0,0,0-.161-1.018c-.046-.045-.429-.143-.485-.028.039-.081.091-2.145.091-2.145l.5-.372-.149-1.13a4.193,4.193,0,0,0-3.068-3.068,4.7,4.7,0,0,0-4.1.795c-.807,0-1.341.546-1.59,1.54a4.488,4.488,0,0,0-.09,1.393c.022.315.1.627.113.94.02.425.024.85.041,1.275.007.173.014.346.024.519a.76.76,0,0,0,.024.252c-.055-.115-.439-.017-.485.028a1.183,1.183,0,0,0-.161,1.018,6.849,6.849,0,0,0,.326,1.3c.086.271.345.615.672.624a7.76,7.76,0,0,0,.484,1.949l.368.453a3.764,3.764,0,0,1-.353,1.645,2.971,2.971,0,0,1-1.707,1.54c-.552.286-1.106.568-1.656.858A13.006,13.006,0,0,0,11.2,31.689c-.036.035-.072.071-.1.109a5.985,5.985,0,0,0-.926,2.507.106.106,0,0,0,.11.124H31.343Z" fill="none" stroke="#fff" stroke-linecap="round" stroke-linejoin="round" stroke-miterlimit="10" stroke-width="0.7"/>
      <circle id="Ellipse_63" data-name="Ellipse 63" cx="4.544" cy="4.544" r="4.544" transform="translate(28.768 14.369)" stroke-width="0.7" stroke="#fff" stroke-linecap="round" stroke-linejoin="round" stroke-miterlimit="10" fill="none"/>
      <g id="Group_1220" data-name="Group 1220">
        <path id="Path_302" data-name="Path 302" d="M0,0V5.172" transform="translate(33.312 15.26)" fill="none" stroke="#fff" stroke-linecap="round" stroke-width="0.7"/>
        <line id="Line_133" data-name="Line 133" x1="2" transform="translate(33.664 20.471)" fill="none" stroke="#fff" stroke-linecap="round" stroke-linejoin="round" stroke-miterlimit="10" stroke-width="0.7"/>
      </g>
    </g>
  </g>
</svg>
