<svg id="email" xmlns="http://www.w3.org/2000/svg" width="50" height="52.041" viewBox="0 0 50 52.041">
  <path id="Path_302" data-name="Path 302" d="M48.352,12.7a19.454,19.454,0,0,0-4.692-6.67A21.905,21.905,0,0,0,36.331,1.6,27.239,27.239,0,0,0,26.742,0a27.313,27.313,0,0,0-7.3.957A26.276,26.276,0,0,0,13.01,3.673,25.739,25.739,0,0,0,7.627,7.925,26,26,0,0,0,3.515,13.5,27.982,27.982,0,0,0,.91,20.166,30.514,30.514,0,0,0,0,27.684,26.585,26.585,0,0,0,1.867,37.917a20.629,20.629,0,0,0,5.4,7.659,24.044,24.044,0,0,0,8.6,4.8,36.839,36.839,0,0,0,11.5,1.663,38.27,38.27,0,0,0,6.732-.549,27.929,27.929,0,0,0,6.011-1.8l-1.6-3.86A24.542,24.542,0,0,1,33.4,47.349a33.128,33.128,0,0,1-6.089.518,31.871,31.871,0,0,1-9.652-1.35,19.873,19.873,0,0,1-7.2-3.939,17.069,17.069,0,0,1-4.52-6.34,21.981,21.981,0,0,1-1.569-8.553,25.1,25.1,0,0,1,1.663-9.2,22.976,22.976,0,0,1,4.63-7.439,21.5,21.5,0,0,1,7.078-4.991,22.009,22.009,0,0,1,9.008-1.821,21.781,21.781,0,0,1,7.549,1.271,18.146,18.146,0,0,1,5.964,3.515,16.137,16.137,0,0,1,3.908,5.32,15.9,15.9,0,0,1,1.413,6.717,21.812,21.812,0,0,1-.832,6.262A15.172,15.172,0,0,1,42.5,32.015a10.035,10.035,0,0,1-3.3,2.935,8.248,8.248,0,0,1-3.986,1.02,1.6,1.6,0,0,1-1.318-.5,2.183,2.183,0,0,1-.408-1.413,9.06,9.06,0,0,1,.2-1.742c.136-.68.3-1.572.486-2.472l4.049-18.119H33.24l-.6,2.676a10.164,10.164,0,0,0-3.421-2.429,11.023,11.023,0,0,0-4.489-.822,11.643,11.643,0,0,0-5.524,1.394,14.69,14.69,0,0,0-4.567,3.82,18.628,18.628,0,0,0-3.092,5.763,22.326,22.326,0,0,0-1.13,7.221,14.111,14.111,0,0,0,.722,4.693,10.159,10.159,0,0,0,2.009,3.485,8.348,8.348,0,0,0,3.092,2.166,10.6,10.6,0,0,0,8.71-.424A13.066,13.066,0,0,0,29,35.971a4.627,4.627,0,0,0,1.711,3.17,5.739,5.739,0,0,0,1.711.942,6.236,6.236,0,0,0,2.1.345,14.47,14.47,0,0,0,6.168-1.318A13.968,13.968,0,0,0,45.606,35.3a18.14,18.14,0,0,0,3.233-6.1A26.708,26.708,0,0,0,50,21,20.845,20.845,0,0,0,48.352,12.7ZM29.5,27.684a13.777,13.777,0,0,1-1.255,3.437,10.992,10.992,0,0,1-1.9,2.605,7.859,7.859,0,0,1-2.4,1.663,6.7,6.7,0,0,1-2.731.58q-5.4,0-5.4-6.811a18.392,18.392,0,0,1,.738-5.273,16.159,16.159,0,0,1,1.962-4.331,10.3,10.3,0,0,1,2.84-2.935,5.975,5.975,0,0,1,3.374-1.083,8.582,8.582,0,0,1,4.049.879,9.556,9.556,0,0,1,2.762,2.134Z" transform="translate(0 0)" fill="#454545"/>
</svg>
