<svg xmlns="http://www.w3.org/2000/svg" width="39.1" height="39.1" viewBox="0 0 39.1 39.1">
  <path id="gender_m" d="M48.8,67.7a16.446,16.446,0,0,0,12.7-27l7-7v3.5a1.5,1.5,0,0,0,3,0V30a.749.749,0,0,0-.1-.5h0c-.2-.4-.4-.7-.8-.8h0a1.087,1.087,0,0,0-.5-.1H63a1.5,1.5,0,0,0,0,3h3.5l-7,7A16.507,16.507,0,0,0,37.2,62.9,16.089,16.089,0,0,0,48.8,67.7Zm-9.6-26a13.481,13.481,0,0,1,9.5-4,13.075,13.075,0,0,1,9.5,4,13.55,13.55,0,0,1-9.5,23.1,13.075,13.075,0,0,1-9.5-4A13.643,13.643,0,0,1,39.2,41.7Z" transform="translate(-32.4 -28.6)" fill="#454545"/>
</svg>
