<svg xmlns="http://www.w3.org/2000/svg" width="48" height="45.017" viewBox="0 0 48 45.017">
  <g id="like" transform="translate(70 518.516)">
    <path id="Path_302" data-name="Path 302" d="M-22-495.6c0-3.2-2.5-4.9-6-4.9H-38.1A30.9,30.9,0,0,0-37-508c0-8.7-2.4-10.5-4.5-10.5a6.066,6.066,0,0,0-3.8,1,1.445,1.445,0,0,0-.7,1l-1.5,8.1c-1.6,4.3-5.7,8-9,10.5v21.4a9.057,9.057,0,0,1,3.8,1.3,11.729,11.729,0,0,0,5.2,1.6h14.3c3,0,5.2-2.4,5.2-4.5a3.75,3.75,0,0,0-.1-1.1,4.445,4.445,0,0,0,3.1-4.1,5.214,5.214,0,0,0-.5-2.3,4.917,4.917,0,0,0,2.3-3.7,4.173,4.173,0,0,0-1-2.5,5.085,5.085,0,0,0,2.2-3.8Z" fill="#454545"/>
    <path id="Path_303" data-name="Path 303" d="M-58-473.5h-9a2.946,2.946,0,0,1-2.138-.862A2.946,2.946,0,0,1-70-476.5v-21a2.946,2.946,0,0,1,.862-2.138A2.946,2.946,0,0,1-67-500.5h9a2.946,2.946,0,0,1,2.138.862A2.946,2.946,0,0,1-55-497.5v21a2.946,2.946,0,0,1-.862,2.138A2.946,2.946,0,0,1-58-473.5Zm0-3h0v0Zm-12-42" fill="#454545"/>
  </g>
</svg>
