<svg xmlns="http://www.w3.org/2000/svg" width="70" height="57.66" viewBox="0 0 70 57.66">
  <g id="iconfinder_Sed-02_2232585" transform="translate(-12.27 -14.334)">
    <g id="Group_1220" data-name="Group 1220" transform="translate(12.269 14.334)">
      <path id="Path_301" data-name="Path 301" d="M13.43,46.873H72.91a1.154,1.154,0,0,0,1.16-1.2c-.074-2.513-.473-8.175-2.6-9.993a13.848,13.848,0,0,0-3.983-2.222.826.826,0,0,1-.128-.041c-1.063-.411-2.157-.754-3.245-1.1-1.049-.332-2.093-.664-3.1-1.046s-2.033-.661-3.066-.95a30.082,30.082,0,0,1-4.271-1.43,5,5,0,0,1-2.252-1.778c-1.765,2.1-4.5,4.344-8.147,4.344h-.119c-3.707,0-6.465-2.313-8.228-4.448a4.754,4.754,0,0,1-2.259,1.882,30,30,0,0,1-4.29,1.43c-1.035.288-2.072.577-3.083.952-1.041.4-2.136.751-3.235,1.1-2.7.859-5.257,1.672-7.191,3.309-2.112,1.805-2.523,7.469-2.6,9.987A1.154,1.154,0,0,0,13.43,46.873Z" transform="translate(-12.269 10.787)" fill="#fff"/>
      <path id="Path_302" data-name="Path 302" d="M32.354,54.488h.119c3.833,0,6.532-3.326,7.8-5.307a36.649,36.649,0,0,0,2.4-4.663c.269-.591.539-1.18.817-1.759a46.672,46.672,0,0,0,2.562-6.784,23.26,23.26,0,0,0,1.035-5.785c.114-3.064-.269-7.459-2.734-10.952a9.369,9.369,0,0,0-.929-1.118c-2.394-2.45-6.535-3.853-10.926-3.781-.167,0-.336-.006-.5-.006-4.328,0-8.291,1.427-10.589,3.781a9.331,9.331,0,0,0-.948,1.136c-2.455,3.484-2.837,7.876-2.723,10.949a23.089,23.089,0,0,0,1.03,5.761,46.588,46.588,0,0,0,2.572,6.807c.272.571.542,1.159.811,1.751a36.542,36.542,0,0,0,2.4,4.657C25.822,51.162,28.522,54.488,32.354,54.488Z" transform="translate(-1.463 -14.334)" fill="#fff"/>
      <path id="Path_303" data-name="Path 303" d="M38.069,15.419a1.043,1.043,0,0,0-1.044,1.043v4.989H32.038a1.043,1.043,0,1,0,0,2.085h4.987v4.989a1.044,1.044,0,0,0,2.088,0V23.537H44.1a1.043,1.043,0,1,0,0-2.085H39.113V16.462A1.043,1.043,0,0,0,38.069,15.419Z" transform="translate(24.854 -12.183)" fill="#fff"/>
    </g>
  </g>
</svg>
