<svg id="removeFriend" xmlns="http://www.w3.org/2000/svg" width="32" height="32" viewBox="0 0 32 32">
  <g id="background">
    <rect id="Rectangle_288" data-name="Rectangle 288" width="32" height="32" fill="none"/>
  </g>
  <g id="database_x5F_remove">
    <path id="Path_301" data-name="Path 301" d="M30,17.348V5c.027-.272-.2-1.715-2.1-2.851C26.012,1,22.6,0,16,0S5.989,1,4.1,2.148C2.208,3.283,1.975,4.726,2,5v22.74c-.035.353.305,1.628,2.176,2.525C6.045,31.19,9.417,31.994,16,32c1.978,0,3.66-.076,5.1-.2A8.994,8.994,0,0,0,30,17.348ZM16,30c-6.414.007-9.541-.821-10.924-1.524A2.92,2.92,0,0,1,4,27.7c-.018-.027.009-.047,0-.062L4,7.783c.037.023.065.047.1.069C5.989,9,9.4,9.993,16,10s10.01-1,11.9-2.147c.037-.023.066-.048.1-.07v7.735A9,9,0,0,0,17.332,29.987C16.9,30,16.465,30,16,30Zm7,0a7,7,0,1,1,7-7A7.009,7.009,0,0,1,23,30Z" fill="#fff"/>
    <g id="Group_1220" data-name="Group 1220">
      <rect id="Rectangle_289" data-name="Rectangle 289" width="10" height="2" transform="translate(18 22)" fill="#fff"/>
    </g>
  </g>
</svg>
